<?xml version="1.0" encoding="UTF-8" standalone="no"?>
<!-- Created with Inkscape (http://www.inkscape.org/) -->
<svg id="svg2" xmlns:rdf="http://www.w3.org/1999/02/22-rdf-syntax-ns#" xmlns="http://www.w3.org/2000/svg" width="247.18mm" version="1.1" xmlns:cc="http://creativecommons.org/ns#" height="15.863mm" viewBox="0 0 875.81576 56.20651" xmlns:dc="http://purl.org/dc/elements/1.1/">
 <metadata id="metadata7">
  <rdf:RDF>
   <cc:Work rdf:about="">
    <dc:format>image/svg+xml</dc:format>
    <dc:type rdf:resource="http://purl.org/dc/dcmitype/StillImage"/>
    <dc:title/>
   </cc:Work>
  </rdf:RDF>
 </metadata>
 <g id="layer2" transform="translate(99.557 -326.4)" display="none">
  <circle id="path3390" stroke-width=".4" cy="361.52" stroke="#000" cx="365.71" r="221.43" fill="none"/>
 </g>
 <g id="layer3" font-size="40px" transform="translate(99.557 -326.4)">
  <flowRoot id="flowRoot3361" style="word-spacing:0px;letter-spacing:0px" font-family="&apos;Palladio URW&apos;" xml:space="preserve" line-height="125%" font-weight="500"><flowRegion id="flowRegion3363"><rect id="rect3365" y="122.95" width="267.14" height="448.57" x="335.71"/></flowRegion><flowPara id="flowPara3367"/></flowRoot>
  <flowRoot id="flowRoot3373" style="word-spacing:0px;letter-spacing:0px" font-family="sans-serif" xml:space="preserve" line-height="125%"><flowRegion id="flowRegion3375"><rect id="rect3377" y="145.8" x="-107.14" width="450" height="354.29"/></flowRegion><flowPara id="flowPara3379"/></flowRoot>
  <flowRoot id="flowRoot4327" style="word-spacing:0px;letter-spacing:0px" xml:space="preserve" transform="translate(-99.557,228.15)" font-family="sans-serif" line-height="125%"><flowRegion id="flowRegion4329"><rect id="rect4331" y="-5.1262" width="45.234" x="360.61" height="41.464"/></flowRegion><flowPara id="flowPara4333">3</flowPara></flowRoot>
 </g>
 <g id="layer5" transform="translate(99.557 -326.4)" stroke="#000" stroke-width=".4" display="none" fill="none">
  <rect id="rect4197" y="-12.767" width="755.71" height="737.14" x="-20"/>
  <path id="path7258" d="m-22.857 174.11c35.986-27.44 71.973 104.1 107.96 168.89 35.986 64.796 71.973 31.625 107.96-1.4302 35.986-33.055 71.973-4.4235 107.96 80.196 35.986 84.619 71.973 164.76 107.96 66.761 35.986-98 71.973-366.27 107.96-458.94 35.986-92.674 71.973 74.767 107.96 362.42 35.986 287.66 71.973 580.95 107.96 462.7" title="x*cos(x/6*3.14)"/>
 </g>
 <g id="layer6" transform="translate(99.557 -326.4)" fill="none">
  <path id="path10293" stroke-width=".7" stroke="#ff4e00" title="cos(x)*cos(x/6*3.14)" d="m-99.557 326.75c9.7302 0.006 19.46 7.4599 29.19 15.979 9.7302 8.5186 19.46 16.674 29.19 18.267 9.7302 1.5929 19.46-3.3334 29.19-8.4123 9.7302-5.0789 19.46-8.9012 29.19-6.0718 9.7302 2.8294 19.46 12.19 29.19 20.943 9.7302 8.7527 19.46 15.484 29.19 14.746 9.7302-0.73745 19.46-8.7637 29.19-16.868 9.7302-8.1042 19.46-14.889 29.19-15.199 9.7302-0.31078 19.46 5.6014 29.19 10.572 9.7302 4.9709 19.46 7.6176 29.19 3.601 9.7302-4.0165 19.46-14.371 29.19-23.169 9.7302-8.7982 19.46-14.663 29.19-13.198 9.7302 1.4656 19.46 9.8795 29.19 17.395 9.7302 7.5159 19.46 12.784 29.19 11.806 9.7302-0.97795 19.46-7.7492 29.19-12.505 9.7302-4.7562 19.46-6.1704 29.19-1.053 9.7302 5.1174 19.46 16.243 29.19 24.898 9.7302 8.655 19.46 13.528 29.19 11.366 9.7302-2.1622 19.46-10.783 29.19-17.55 9.7302-6.7663 19.46-10.404 29.19-8.1587 9.7302 2.2457 19.46 9.7308 29.19 14.17 9.7302 4.4395 19.46 4.5909 29.19-1.5176 9.7302-6.1085 19.46-17.767 29.19-26.093 9.7302-8.326 19.46-12.103 29.19-9.2904 9.7302 2.8125 19.46 11.456 29.19 17.327 9.7302 5.8715 19.46 7.8019 29.19 4.3366 9.7302-3.4653 19.46-11.504 29.19-15.531 9.7302-4.0275 19.46-2.9129 29.19 4.0556 9.7302 6.9686 19.46 18.91 29.19 26.729 9.7302 7.8184 19.46 10.418 29.19 7.0155"/>
  <path id="path10369" d="m-10 333.68c8.2222 0.005 16.444 6.3038 24.667 13.502 8.2222 7.1985 16.444 14.09 24.667 15.436 8.2222 1.346 16.444-2.8168 24.667-7.1086 8.2222-4.2918 16.444-7.5218 24.667-5.1308 8.2222 2.391 16.444 10.301 24.667 17.697 8.2222 7.3962 16.444 13.084 24.667 12.461 8.2222-0.62317 16.444-7.4056 24.667-14.254 8.2222-6.8483 16.444-12.581 24.667-12.844 8.2222-0.26262 16.444 4.7333 24.667 8.9338 8.2222 4.2005 16.444 6.437 24.667 3.043 8.2222-3.3941 16.444-12.144 24.667-19.578 8.2222-7.4347 16.444-12.391 24.667-11.152 8.2222 1.2384 16.444 8.3484 24.667 14.7 8.2222 6.3511 16.444 10.803 24.667 9.9761 8.2222-0.82639 16.444-6.5483 24.667-10.567 8.2222-4.0191 16.444-5.2142 24.667-0.88983 8.2222 4.3244 16.444 13.726 24.667 21.04 8.2222 7.3137 16.444 11.432 24.667 9.6046 8.2222-1.8272 16.444-9.1122 24.667-14.83 8.2222-5.7177 16.444-8.792 24.667-6.8943 8.2222 1.8977 16.444 8.2227 24.667 11.974 8.2222 3.7515 16.444 3.8795 24.667-1.2824 8.2222-5.1618 16.444-15.014 24.667-22.05 8.2222-7.0357 16.444-10.227 24.667-7.8506 8.2222 2.3766 16.444 9.6804 24.667 14.642 8.2222 4.9616 16.444 6.5928 24.667 3.6646 8.2222-2.9282 16.444-9.7208 24.667-13.124 8.2222-3.4034 16.444-2.4615 24.667 3.4271 8.2222 5.8886 16.444 15.98 24.667 22.586 8.2222 6.6068 16.444 8.8034 24.667 5.9282" stroke-opacity=".71572" title="cos(x)*cos(x/6*3.14)" stroke="#256ba4" stroke-width=".7"/>
  <path id="path10675" stroke-width=".3" stroke="#000" title="cos(x)*cos(x/9*3.14)" d="m-11.5 337.1c8.3333 0.005 16.667 5.4659 25 12.724 8.3333 7.2586 16.667 15.63 25 20.038 8.3333 4.4078 16.667 4.6069 25 2.0232 8.3333-2.5837 16.667-7.3743 25-9.6095 8.3333-2.2351 16.667-1.5123 25 1.7193 8.3333 3.2317 16.667 8.508 25 10.875 8.3333 2.3669 16.667 1.2757 25-3.9396 8.3333-5.2152 16.667-14.248 25-21.61 8.3333-7.3622 16.667-12.385 25-11.965 8.3333 0.41988 16.667 6.2081 25 13.211 8.3333 7.0029 16.667 14.537 25 18.036 8.3333 3.4988 16.667 2.8142 25 0.0635 8.3333-2.7507 16.667-6.9511 25-8.1379 8.3333-1.1868 16.667 0.95753 25 5.1211 8.3333 4.1636 16.667 9.8121 25 11.907 8.3333 2.0948 16.667 0.14655 25-5.7714 8.3333-5.9179 16.667-15.413 25-22.718 8.3333-7.3051 16.667-11.784 25-10.949 8.3333 0.83565 16.667 6.8171 25 13.414 8.3333 6.5969 16.667 13.133 25 15.648 8.3333 2.5147 16.667 0.9611 25-1.8976 8.3333-2.8588 16.667-6.3787 25-6.4917 8.3333-0.11294 16.667 3.4069 25 8.413 8.3333 5.0062 16.667 10.906 25 12.684 8.3333 1.7778 16.667-0.9857 25-7.4794 8.3333-6.4937 16.667-16.247 25-23.339 8.3333-7.0914 16.667-10.931 25-9.6976 8.3333 1.2335 16.667 7.2799 25 13.329 8.3333 6.0494 16.667 11.446 25 12.923 8.3333 1.4767 16.667-0.91259 25-3.8181"/>
 </g>
 <g id="layer8" transform="translate(99.557 -326.4)" stroke="#000" stroke-width=".7" display="none" fill="none">
  <path id="path23744" title="(sin(sin(x*x)*34*(x+3.14)) +20)/21" stroke-opacity=".15455" d="m342.3 271.16c0.00003-0.40686 0.0248-0.81373 0.0747-1.2216s0.12491-0.81676 0.22502-1.2277c0.10011-0.41091 0.22548-0.82385 0.37492-1.2398 0.14943-0.41593 0.32318-0.83489 0.51774-1.2576 0.19455-0.42273 0.41016-0.84927 0.63937-1.2799 0.2292-0.43066 0.47219-0.86547 0.71572-1.3038 0.24354-0.43839 0.48767-0.8804 0.71202-1.3241 0.22435-0.44365 0.42871-0.88899 0.58559-1.3322 0.15689-0.44319 0.26571-0.8842 0.2947-1.3172 0.029-0.43304-0.0229-0.85799-0.18487-1.2677-0.16193-0.40976-0.43542-0.80407-0.83528-1.1765-0.39986-0.37239-0.92783-0.72246-1.5697-1.0477-0.64188-0.32523-1.3989-0.62521-2.2151-0.90551-0.81619-0.2803-1.6914-0.5407-2.5256-0.79807-0.83422-0.25738-1.625-0.51198-2.2477-0.79104-0.62271-0.27905-1.0724-0.58353-1.2461-0.94268-0.17369-0.35914-0.0654-0.77454 0.34099-1.2611 0.40635-0.48654 1.1145-1.0457 2.0003-1.6593 0.88582-0.61358 1.9467-1.2816 2.9255-1.9451 0.97882-0.6635 1.8645-1.32 2.3735-1.889 0.50899-0.56904 0.62572-1.046 0.22754-1.3802-0.39819-0.33422-1.3202-0.52185-2.569-0.60026-1.2489-0.0784-2.8144-0.0491-4.2165-0.0487-1.4021 0.00039-2.6108-0.0371-3.1794-0.26581-0.56856-0.22873-0.46878-0.65961 0.28073-1.3142s2.1418-1.5335 3.5576-2.445c1.4158-0.91143 2.8032-1.8385 3.422-2.508 0.61886-0.66948 0.41665-1.0596-0.64965-1.1189s-2.9789 0.2103-4.8325 0.48628-3.5533 0.52232-4.1728 0.35151c-0.61954-0.17081-0.0962-0.78973 1.2374-1.7654 1.3336-0.97565 3.3943-2.2793 4.7719-3.3217s1.9228-1.7557 1.0862-1.8522c-0.83658-0.0965-3.0345 0.42466-5.1932 0.96516s-4.0626 1.002-4.3629 0.71625c-0.30036-0.28575 1.0691-1.3628 2.958-2.7309 1.8889-1.368 4.031-2.9019 4.4826-3.6061 0.45161-0.70421-0.93783-0.48791-3.2012 0.21976s-5.0733 1.7448-6.056 1.8305 0.0691-0.90945 2.0587-2.4629c1.9895-1.5535 4.4862-3.4369 4.8497-4.1337 0.36345-0.69681-1.6021-0.0718-4.1824 0.96182s-5.1886 2.1383-5.2876 1.7468c-0.0989-0.39155 2.3545-2.3359 4.5343-4.1688s3.3496-3.0922 1.9204-2.6863c-1.4293 0.4059-5.1297 2.3015-7.1356 3.1446-2.0059 0.84303-1.6317 0.15797 0.46991-1.7342s5.0742-4.4364 5.0302-4.9252c-0.044-0.48875-3.2589 1.2313-5.9814 2.6719-2.7224 1.4406-3.8279 1.7889-2.1758 0.0998 1.6522-1.6891 5.221-4.8429 5.7544-5.7742 0.53347-0.93135-2.4312 0.76141-5.3149 2.4681s-4.2564 2.3171-2.5714 0.48965c1.6851-1.8274 5.3755-5.3118 5.6278-6.0647 0.2523-0.75291-3.3029 1.5939-6.0527 3.3576s-3.093 1.5856-0.89682-0.80562 5.3243-5.665 4.4614-5.4782c-0.86293 0.18685-5.3535 3.5998-7.2722 4.7936s-0.0348-1.0036 2.4438-3.8353 3.4727-4.3794 1.0683-2.6916-6.5684 5.1307-6.5815 4.6059c-0.0131-0.52483 3.9325-4.9329 5.33-6.9124s-1.1652-0.0496-4.148 2.4054-4.091 3.0862-2.0678 0.4064 5.162-6.6304 4.0317-6.0467c-1.1302 0.58373-5.7841 5.0166-7.0779 5.8586-1.2938 0.84201 1.6514-2.9803 3.661-5.8654 2.0096-2.885 0.99167-2.4237-1.8831 0.26354s-5.25 4.9069-3.8704 2.6694 4.9302-7.1557 4.5132-7.3214c-0.41702-0.16573-4.656 4.373-6.4563 5.9902-1.8004 1.6173 0.14096-1.413 2.1885-4.6963s2.0838-4.083-0.39627-1.5172c-2.48 2.5658-5.5299 6.002-4.9119 4.5194 0.61794-1.4825 4.006-6.7952 4.3688-8.0236 0.36281-1.2283-2.7986 2.4411-5.0603 4.9615-2.2616 2.5204-2.0914 1.6538-0.34048-1.6087s3.4123-6.5166 2.0377-5.2224-4.9108 5.9333-5.8715 6.7009c-0.96073 0.76756 0.98946-2.967 2.4433-6.0439 1.4538-3.077 1.247-3.6082-0.71836-1.2059s-4.6165 6.0446-4.8025 5.6019c-0.18594-0.44268 1.8815-4.7192 2.8847-7.2835s0.29588-2.2403-1.5454 0.18164c-1.8413 2.422-4.0594 5.6315-4.3671 5.3885-0.30768-0.24295 1.1629-3.7799 2.1324-6.4914 0.96951-2.7114 0.98212-3.704-0.27198-2.1904s-3.4101 4.8721-4.5169 6.2158c-1.1068 1.3438-1.0354 0.3629-0.35736-1.9532 0.67807-2.3161 1.6856-5.4119 1.7583-6.571s-0.80252-0.312-2.0634 1.4648c-1.2608 1.7768-2.7499 4.1451-3.6188 5.1578-0.86888 1.0127-1.1089 0.6235-0.93827-0.78658 0.17067-1.4101 0.67635-3.673 0.95336-5.4495 0.277-1.7765 0.30425-3.0032-0.0351-3.3074-0.33935-0.30419-1.0206 0.26229-1.8203 1.1887-0.79963 0.92638-1.6998 2.1657-2.5079 3.2051-0.80814 1.0394-1.5246 1.8752-2.1128 2.3714-0.58814 0.4962-1.0539 0.66672-1.4475 0.62415-0.39358-0.0426-0.71829-0.28885-1.0298-0.58603-0.3115-0.29718-0.61018-0.64328-0.92729-0.93918-0.31711-0.29589-0.65216-0.54228-1.0144-0.69899-0.36228-0.1567-0.75166-0.22338-1.1624-0.20792-0.41078 0.0155-0.84331 0.11541-1.2766 0.23028-0.43332 0.11487-0.86734 0.24599-1.2628 0.23225-0.39543-0.0137-0.74967-0.18178-1.0209-0.71533-0.27126-0.53355-0.45334-1.4627-0.56426-2.7763s-0.1487-3.0334-0.26096-4.5036c-0.11225-1.4702-0.31842-2.6058-0.77949-2.4792s-1.2018 1.6762-2.0257 3.8429c-0.82394 2.1667-1.6818 4.7291-2.1443 5.1276-0.46243 0.39855-0.46787-1.8277-0.39424-4.8254 0.0736-2.9977 0.0674-5.8363-0.5249-4.7517-0.59229 1.0846-1.7323 6.1437-2.4083 8.2146-0.67602 2.0708-0.64883-0.95222-0.57242-4.9235 0.0764-3.9713-0.26903-5.0024-1.1298-0.9881s-1.6674 8.3244-1.7033 4.6484 0.10028-10.136-0.62475-6.5892c-0.72503 3.5469-1.6414 10.613-1.7229 6.2844-0.0814-4.3287-0.17132-10.023-0.91574-4.5016-0.74441 5.521-1.114 6.0623-1.2442 0.0809-0.13012-5.9815-0.93407 2.4649-1.4298 5.5405-0.49572 3.0756-0.47739-12.032-0.98069-8.4521-0.5033 3.5802-0.95641 10.082-1.301 2.9836-0.34453-7.0981-0.82594 7.0558-1.2162 5.9246-0.39031-1.1312-0.9339-11.103-1.214-3.4088-0.28014 7.6945-1.0702-10.225-1.3518-5.2249-0.2817 5.0001-0.74431 2.4415-1.2956-0.613-0.55131-3.0545-0.284 10.825-1.1401 2.6035-0.8561-8.2214-0.0474 12.033-1.0612 2.8283-1.0138-9.2042-0.0248 10.048-1.0719 1.8108s-0.0482 8.2038-1.1182 0.82917c-1.07-7.3747 0.011 7.6927-1.1742 0.11664s0.1859 8.3336-1.2535-0.56003c-1.4394-8.8937 0.3851 9.0741-1.3815-1.4091s0.36058 8.1628-1.5425-2.2569-0.20728 3.9755-1.6135-2.3114c-1.4062-6.287-1.3359-2.8493-1.3786-0.53296-0.0428 2.3164-2.2673-7.6551-0.78177 2.8641s-1.7932-4.7635-0.3052 4.9619 0.0581 4.2124-0.75445 2.2006c-0.81256-2.0118 0.99093 8.0029-2.0011-3.6822s-0.7962 0.0461-2.3601-4.7718-2.8572-7.9838-0.85897 1.8435c1.9983 9.8273-1.5048-2.3494 0.3569 6.3502 1.8618 8.6995 1.3164 7.7798-1.0071 0.78081-2.3235-6.9989 0.58822 4.7749-2.8459-5.6542s-2.6414-5.9092-1.8472-1.7979c0.79422 4.1113-2.8996-6.291 0.3833 5.4672s0.17573 3.1704 0.11522 4.2233c-0.0605 1.0528 1.9393 7.9959-2.0738-2.4707s0.37772 3.3653-2.891-4.5327-2.261-3.683-1.6342-0.77094c0.6268 2.912-3.6098-6.9525-0.19097 3.0592 3.4189 10.012-3.3884-6.19 0.16445 3.7581s-2.4571-3.8092-0.27082 2.4765-1.6075-1.7522-0.76647 1.1845c0.84101 2.9367-1.2958-1.005-1.0066 0.59619 0.28913 1.6012-1.8522-2.1761-1.1067 0.37056 0.74551 2.5467-3.5208-5.6093-1.416-0.27249s-5.6954-9.8522-2.2758-1.9747-5.3549-8.8286-3.1154-3.477 0.89943 3.5343-1.4134 0.0245 5.1831 11.471 2.3284 7.0024c-2.8548-4.4689-4.4905-6.4825-1.8715-0.93952s-1.6597-1.334-3.7214-4.0871c-2.0617-2.7532 2.3527 5.7344 3.1071 7.782 0.75441 2.0476-3.4198-4.2123-5.2045-6.3434s-0.21116 1.2945 1.2854 4.4602 1.8983 4.4871 0.84866 3.57c-1.0497-0.91707-2.954-3.1162-4.2693-4.3603s-2.128-1.6877-2.6478-1.695c-0.51978-0.007-0.81734 0.3168-1.16 0.57222-0.34265 0.25542-0.73614 0.4391-1.0467 0.73914-0.3106 0.30004-0.50789 0.76272-0.13968 1.9764 0.3682 1.2137 1.4974 3.4288 2.4972 5.4157s1.3798 3.0861-0.54481 1.2391-6.0105-6.366-5.874-5.5069c0.13647 0.85914 5.6254 8.3291 5.0655 8.2536-0.55989-0.0755-8.477-9.0049-6.6021-6.0979 1.8748 2.9071 6.4489 8.8562 1.4048 3.5953-5.0441-5.261 3.7893 5.584 2.4941 4.696-1.2952-0.88802-5.2461-4.6724-1.5694-0.008 3.6767 4.6645-7.1603-6.6014-1.6333-0.0378 5.5269 6.5636-5.1224-4.2471-0.20978 1.5057s0.79529 1.9508 0.0572 1.746c-0.73813-0.20476 5.4775 6.5659-3.6988-2.0679s-5.8979-4.6728-4.831-3.0318-0.35287 0.89417 5.4408 6.9601 3.0825 3.8932-5.9096-3.8975c-8.992-7.7907-3.4665-1.9734 4.0809 5.4 7.5474 7.3735-5.3174-3.7035-7.1147-4.7226s15.4 14.447 5.1261 6.1102c-10.274-8.3365-11.075-8.2769-0.76915 0.89754 10.305 9.1744-15.614-11.805-5.7027-3.1428 9.9114 8.662 3.4076 3.7903-1.7635 0.2078-5.171-3.5825 16.024 13.559 1.5578 2.8309-14.467-10.728 16.526 13.579 1.8494 2.9581s11.184 9.26 0.92999 2.1774 4.7924 4.4137 0.0585 1.4876c-4.7338-2.926-1.092 0.18231-0.50863 1.0625 0.58339 0.88018-6.5359-3.5195-0.91114 0.78238 5.6248 4.3018-11.891-6.9583-1.3619 0.49293s-16.78-9.9015-2.0459 0.0775-18.829-10.887-2.9475-0.43828c15.882 10.448-12.818-6.8741-3.3276-0.58956 9.49 6.2845 4.7977 3.8246-1.2296 0.74636-6.0272-3.0783 19.364 12.161 3.8154 3.6717-15.548-8.4888-0.72879 0.53816 2.9477 3.0381 3.6765 2.5-17.594-8.7096-7.7394-2.88 9.8546 5.8297 17.171 10.019 3.5499 3.2988-13.621-6.7201-15.249-6.897-2.6398 0.005 12.609 6.9023 12.298 7.0272 3.5938 3.1565-8.7044-3.8707-2.4638-0.34779-7.6158-2.346s-6.9651-2.2895 0.36285 1.5747c7.3279 3.8642-7.5356-2.4491 1.3941 2.0101s-8.5493-2.8151-1.6391 0.63704c6.9102 3.4522-1.8498 0.11984-2.6239 0.25871s11.35 5.5403 6.1077 3.8502c-5.2423-1.69-7.7579-2.1847-3.6088-0.12671s6.1639 3.2134 4.2008 2.8944c-1.9631-0.31906-5.0879-1.0339-6.5021-1.0998s-1.8125 0.24922-1.9469 0.65217c-0.13444 0.40294-0.005 0.90118 1.2025 1.7428 1.2071 0.8416 4.2833 2.2706 5.9124 3.199 1.629 0.92834-1.691 0.27297-6.1722-0.65888s1.5182 1.333 5.3095 2.8438c3.7913 1.5107-13.128-2.8629-7.0075-0.72856 6.1205 2.1344-4.6401-0.3635-1.8183 0.82241s-6.9256-0.85202 0.74866 1.5059-4.355-0.13904 5.9468 2.7108c10.302 2.8499 11.763 3.4328-2.7865 0.58921s-15.454-2.4268 0.24464 1.2948c15.698 3.7217-1.195 0.56247-5.6694 0.11274s22.031 4.9514 3.4558 1.9394 21.315 4.4988 1.2659 1.4677 17.987 3.6649-2.308 0.86237-1.0113 0.67441-3.4048 0.75699c-2.3935 0.0826-18.162-1.5314 5.1022 1.9711s20.81 3.328 2.4937 1.5227-19.656-1.3514-7.4677 0.38517 21.811 2.9539 8.1256 2.0489c-13.685-0.90494-27.719-1.5215-7.0798 0.59237 20.64 2.1138 29.479 2.8993 3.2097 1.483-26.27-1.4163-19.712-0.29683 2.2579 1.3457 21.969 1.6425 0.006 0.76085-7.4462 0.85897-7.4523 0.0981 17.555 1.445 9.1913 1.5693-8.3639 0.12436-25.635 0.25683-8.1511 1.0091 17.484 0.7523 25.929 1.0348 6.6278 1.3069-19.301 0.27209-20.826 0.88882-7.1009 1.2262 13.725 0.33742 4.3604 0.8018 8.7813 1.1053 4.4209 0.30347 17.825 0.19304-4.7328 1.3101s6.8372 0.49555-4.1252 1.4036c-10.962 0.90808 5.8032 0.51913-0.37868 1.2966-6.1819 0.7775 17.524-0.3525 2.0644 1.1386s14.211-0.29761 7.0596 0.67877c-7.1512 0.97638-18.263 2.4777-7.5782 1.8887 10.685-0.58906 8.0014 0.0216 8.2796 0.38051 0.27825 0.35886 6.972-0.0696-2.2937 1.4436s7.1686-0.14853 1.1345 1.0499-4.8188 1.4953-0.0351 1.1954c4.7836-0.2999-3.6009 1.3402-6.3394 2.2012-2.7386 0.86101-0.62076 0.96309 0.66587 1.1676 1.2866 0.20449 1.7491 0.53298 1.005 1.0932-0.74407 0.56024-3.1624 1.4619-2.2926 1.7248 0.8698 0.26297 9.5458-1.0993 9.6094-0.71764 0.0636 0.38161-13.722 3.84-5.5927 2.441 8.1295-1.399-10.332 3.2921-0.86209 1.4737 9.4694-1.8184-3.6006 1.7857 5.8282-0.17222s9.1326-1.6219-4.8401 2.4961 5.222-0.55878 6.8253-0.60252c1.6033-0.0437-14.249 4.9482-0.88552 1.4657 13.364-3.4825-0.25854 0.90358 1.537 0.76038s16.756-4.5549-5.5091 2.9727-21.909 8.1657 2.554 0.45426 5.1761-0.96587-4.7773 2.9348c-9.9535 3.9007 32.094-10.653 4.826-0.38356-27.268 10.27 27.581-9.4695 2.2135 0.4708s27.83-9.9915-0.72911 1.5655 21.099-7.6731-2.9971 2.5159c-24.097 10.189-8.6612 4.5272-1.2194 1.8729 7.4419-2.6543-24.846 11.73 5.3069-0.90684 30.153-12.636 5.2527-1.4505 4.4091-0.6483-0.84361 0.80224 25.734-11.107-3.3895 2.851s11.214-4.5002-3.7444 3.1405c-14.958 7.6406-4.7826 3.3109 0.00021 1.4201s-6.9869 4.5275 0.69302 1.0841 9.5526-4.067 0.67641 1.0893 28.06-14.234 6.1216-1.8694c-21.938 12.364-22.575 13.536-0.50678 1.6569s18.099-9.4773 2.7945-0.20812 13.591-7.1624-3.2324 3.2909 17.619-9.7671 2.9101-0.32437-8.2709 6.1462 2.1413 0.0791 8.8173-4.7606-1.2194 2.1939 6.1885-3.1455-1.0655 2.1588 6.8513-3.6408 5.5484-2.2842-7.0932 5.8625-7.0725 6.3693c0.0207 0.50684 1.3409 0.0917 1.3137 0.63362-0.0271 0.54189-1.1715 1.9249 1.6491 0.36428s9.59-6.1931 3.9929-1.447c-5.5971 4.7462 8.4181-5.5153 2.6186-0.50742-5.7995 5.0078 3.5223-1.8433-4.5165 5.1113s1.3297 0.04 6.7869-3.9279c5.4572-3.968-15.378 13.923-0.985 2.3482s4.3003-2.6429 2.7339-0.78224-5.9977 6.2812-6.4763 7.2746c-0.47857 0.99338 25.928-22.331 4.6711-2.506s23.618-20.857 1.0754 0.66146c-22.543 21.519 6.6704-5.275-2.8621 4.4056s-16.62 17.488 5.7771-3.8653 13.333-12.286-3.4511 5.1483c-16.784 17.435 17.085-16.316 6.5381-4.9083-10.547 11.407-23.131 25.521-0.37073 2.0849s-25.749 28.995-2.5365 4.4938c23.213-24.501-2.6589 4.1803-0.72044 2.6674 1.9384-1.5129 24.445-26.512 2.553-0.96433s18.128-19.84 5.1484-4.0876c-12.979 15.752-25.37 31.575-1.6649 3.819s22.051-25.812 0.50852 1.3078-14.295 19.321-0.95238 3.178c13.342-16.143-15.882 21.957 3.0152-1.8294 18.898-23.786-11.948 17.205-1.0203 3.3931s17.652-22.606 4.1097-3.461-0.8275 2.4919-2.6775 5.817 7.1039-8.7155 1.5214 0.0553 3.6167-3.7687 5.8909-6.4382c2.2741-2.6695 3.7773-4.3381 0.23232 1.7589s-1.1455 3.2465 1.1539 0.38297c2.2995-2.8635-0.21316 1.8001-0.51574 3.0487s0.83113 0.20578 2.3512-1.5458c1.5201-1.7515-0.8659 2.9589-2.7128 6.9316s5.435-7.7931 1.4309 0.0573-5.3006 11.314 2.9413-2.6976c8.2419-14.011-6.2754 13.312-1.1661 4.7245 5.1093-8.587-7.3417 15.931 3.7994-4.5195 11.141-20.451 5.4033-8.9426-1.4524 5.523-6.8556 14.466 11.515-21.521 1.467-0.10341-10.048 21.417-11.497 26.144 1.4154-0.0383 12.913-26.182 17.703-36.445 2.3049-2.01-15.399 34.435 10.565-21.704 2.7316-3.1417-7.8336 18.562 13.007-28.29 0.63876 1.4717s11.011-24.537-1.3129 6.2453-14.426 38.306 1.8886-1.3248 13.547-32.758 2.8609-3.9794-6.9616 20.893-1.7146 7.9936-1.1619 5.8993 4.2843-8.1928c5.4463-14.092 13.191-36.114-0.39563 4.7364s6.4977-17.194-0.11791 4.2637 9.5144-27.353 1.4253-0.28986c-8.0892 27.063 8.3569-24.697 3.3795-6.8348s-1.8578 9.1377-1.3633 8.9638c0.49457-0.17385-2.4736 12.262 1.3719-0.15678s8.196-28.006 2.2541-3.593-0.82606 6.661 0.0948 4.716c0.92088-1.945 4.801-16.72 1.8984-2.4904s-1.1553 9.0586 0.9035 1.684 1.127-1.3052 1.0444 1.1846 1.3684-2.5223 1.7838-2.4935c0.41546 0.0288-0.10528 5.1439 0.70125 3.0815 0.80654-2.0624 2.3499-8.8011 1.4429-0.88168-0.90703 7.9194-1.2559 13.611 1.5699-1.8804 2.8258-15.492-0.97119 12.552 0.78052 3.2805 1.7517-9.2714 0.77404 0.92982 2.4052-8.6237s-3.1582 33.545 0.76751 3.453c3.9258-30.092 2.939-20.316 1.5092-2.8495s-3.0492 41.699 0.87558 3.2454-1.8505 33.791 1.3382-1.6117c3.1888-35.402 3.616-42.76 1.0633 1.8888s-1.2629 38.763 1.2978-1.6345c2.5606-40.397-1.1403 46.636 0.96928 5.3408 2.1096-41.296-0.0471 30.966 1.2172 1.3022 1.2643-29.663 0.36738 30.418 1.2698-0.016 0.90245-30.433 0.75609 28.227 1.2684 0.15843 0.51229-28.068 0.86548 2.3226 1.2788 0.85565 0.41338-1.467-0.26127-51.488 1.1853-4.3805s2.2244 40.359 1.1549-2.0919 0.0852-15.429 1.0568-3.0743c0.97163 12.355 1.5742 13.33 1.1643-0.006-0.40994-13.336 0.24726-6.8011 1.8005 8.7441 1.5533 15.545-0.13726-11.617 1.2814 0.0246 1.4186 11.641 1.0703 1.8268 0.42255-8.7826-0.64774-10.609 2.3955 14.636 1.3148 1.2757-1.0806-13.36-0.26951-8.6009 1.2885 0.77169s0.8882 0.55783 0.94033-1.9569c0.0521-2.5147 0.55197-1.6271 1.0256-1.0753 0.47363 0.55183 3.0419 14.159 2.4714 7.9968-0.5705-6.1626 2.0274 6.543 0.16609-6.3969s5.4149 24.629 1.9132 3.7571-4.8465-28.378 0.54901-3.5484c5.3956 24.829-5.9362-31.5 1.5211 1.3976s7.8009 30.624 0.71351-2.3469 5.0499 17.57 0.72942-2.0514c-4.3205-19.622-0.95538-6.7687 3.3318 8.3832s-11.057-44.686 0.70822-2.3008 3.0758 7.8964 1.8173 1.837c-1.2586-6.0594 6.2747 18.147-1.3186-9.0105-7.5933-27.157-2.5038-10.639 3.7076 8.0633s-3.668-14.294-1.6594-9.3198c2.0085 4.9742 8.295 22.379 4.1207 8.6198s5.0749 11.797-1.8032-9.0203c-6.8781-20.818-9.3866-28.023 1.2995 0.16513s4.8948 10.71 0.80564-1.1816-3.5798-11.119 4.3679 7.9352-6.7616-18.834 1.1349-0.59217 7.5046 15.503-1.6714-7.226c-9.176-22.728 12.355 26.327 2.876 3.628-9.4792-22.699 3.6141 5.9347-0.95337-5.1072-4.5674-11.042 0.2034-1.3414 4.0718 5.9349 3.8684 7.2762-3.3304-8.8937-1.8805-6.7938 1.4498 2.0999 1.7235 1.6979 0.96703-0.69445-0.75649-2.3923 8.1491 14.182 3.8954 5.0056-4.2537-9.1762-9.6804-20.056-0.76949-4.119s1.0648 0.33377 4.0906 4.9763c3.0257 4.6425-4.9457-10.518 1.0342-0.77286 5.9799 9.7455-13.986-25.879-3.2547-8.1572 10.732 17.722-16.309-28.781 4.4031 5.0944 20.713 33.875-20.697-35.335-2.0603-5.7459s-17.867-29.696 4.6051 5.0857 0.0433-1.5397-3.3478-7.4704c-3.3912-5.9307 25.698 37.111 1.7397 0.51695s13.905 18.876 0.37826-1.5299-13.249-20.149 0.99112-0.61432-26.999-38.623 1.8689 0.59562-15.971-22.829 0.0989-1.853 37.105 47.398 3.7482 2.9906-7.6216-11.095-2.187-4.7807c5.4346 6.3146 25.98 31.118 2.1835 0.86498-23.797-30.253-14.334-18.641 0.12002-1.7192s24.187 27.43 4.5332 3.5481 9.3376 9.5189 2.7469 1.2724 8.9553 8.7738-0.20535-2.15-1.0138-2.393-3.6499-5.8592 4.8288 4.055 4.8175 3.4375c-0.0113-0.61752-7.8534-9.3981-1.5585-3.416s9.4382 8.4898 5.3946 3.7747 15.166 13.791-3.161-4.93 19.958 18.152-0.36284-2.027 32.534 29.587 4.2302 2.357-37.36-35.452-0.82087-2.4426-18.332-17.479 4.2068 2.1358c22.539 19.614-35.816-32.438-4.9142-5.9795 30.901 26.458-45.465-39.705 3.5591 1.4844 49.024 41.19 49.67 40.157 1.8904-0.0201s-46.881-38.968 1.2058-0.62036-3.7403-4.043-4.6966-5.2887c-0.95629-1.2456 36.407 27.024 7.7178 4.4634s1.3659-0.0822-6.2695-6.276c-7.6354-6.1937-2.9923-3.1369 0.66854-0.94828 3.6609 2.1886 27.949 18.925 8.0957 4.3209s12.828 7.8283 0.98973-0.86516 23.789 14.929-5.0064-4.9054c-28.796-19.835-20.109-14.08 4.1728 1.3056s3.6369 1.2999-4.5665-4.38 13.571 7.5221 7.5823 3.3197c-5.9885-4.2025-3.1593-2.8984-1.2927-2.2584 1.8666 0.64003-5.0976-3.9679-4.9153-4.3091 0.18231-0.34115-8.8156-5.8611 6.3056 2.2458 15.121 8.1068 17.063 8.4675 2.4586-0.0638s21.964 10.755-5.2342-4.2382 5.0084 1.6978-1.2475-1.9828 26.177 12.3 1.0898-0.75064c-25.088-13.05 27.458 12.55 8.3087 2.7481-19.149-9.8018 52.027 23.57-4.8687-3.7084-56.895-27.278 5.6365 1.7208 6.2757 1.5429 0.63922-0.17788 9.642 3.3202 0.46569-1.1953s62.815 25.83-3.0709-2.7013 25.71 9.6671-4.3942-3.14c-30.105-12.807 4.0958 0.78727 0.004-1.2524-4.0921-2.0397 66.858 24.754 4.822 0.60201s-23.738-9.6198-3.685-2.6547 55.294 18.754 4.2677 0.27511 44.659 14.315 1.2839-0.84763 26.073 7.6152-2.7867-2.1981c-28.86-9.8132-3.05-1.7874-1.578-1.7334s-9.7964-3.7188 1.9277-0.63563c11.724 3.0831-3.0258-1.6749 1.1329-0.90522 4.1588 0.76972 1.343-0.46742-1.5648-1.6576-2.9079-1.1902-12.62-4.0438 1.7211-0.76165 14.341 3.2821 6.4717 0.79849 7.7402 0.66817s12.513 1.9706-8.4284-3.2589c-20.941-5.2294-36.524-8.7103 6.5313 0.22367 43.056 8.934 47.24 8.8 0.658-1.1411-46.582-9.9412 60.897 10.775-3.076-1.8656s22.096 3.138 5.477-0.25577 63.811 9.6483-6.1747-2.3167-37.263-6.457 6.0006-0.29812c43.263 6.1589-71.441-10.844-6.4258-2.18 65.015 8.6641 53.794 6.0081-0.74408-1.2916-54.538-7.2998-45.733-5.9656 7.066-0.37995s-11.419-1.9959 1.4359-1.1256c12.854 0.87031-5.1717-1.3547-9.4637-2.1221s58.284 3.6552 4.3719-0.83202 39.696 1.7061 3.3762-1.0032 6.386-0.50724 2.1221-1.1498c-4.2639-0.64255-25.989-1.855-4.2126-1.4412 21.777 0.41389 6.3434-0.66852-2.3455-1.2867s0.26648-0.80282-1.885-1.221c-2.1515-0.41822 12.999-0.77943 0.61039-1.1732"/>
  <path id="path23399" title="(sin(x*x*14*(x)) +20)/21" stroke-opacity=".25" d="m342.3 271.16c0-0.40686-0.003-0.81373-0.008-1.2206-0.005-0.40684-0.0124-0.81365-0.0221-1.2204-0.01-0.40676-0.0217-0.81347-0.0359-1.2201-0.0141-0.40664-0.0304-0.81322-0.0488-1.2197-0.0183-0.4065-0.0387-0.81292-0.0609-1.2193-0.0222-0.40635-0.0463-0.81262-0.0722-1.2188-0.0258-0.4062-0.0535-0.81233-0.0827-1.2184s-0.0601-0.81208-0.0924-1.218c-0.0323-0.40597-0.0661-0.8119-0.10128-1.2178-0.0351-0.40591-0.0717-0.81181-0.1094-1.2177-0.0377-0.40592-0.0767-0.81185-0.11674-1.2178-0.0401-0.40599-0.0812-0.81203-0.12334-1.2182-0.0421-0.40614-0.0852-0.81238-0.1292-1.2188-0.044-0.40638-0.0888-0.81292-0.13434-1.2197-0.0456-0.40674-0.0919-0.81369-0.13881-1.2209-0.047-0.40722-0.0945-0.8147-0.14266-1.2225-0.0481-0.40781-0.0968-0.81595-0.14592-1.2245-0.0491-0.40854-0.0987-0.81748-0.14867-1.2269-0.05-0.40941-0.10033-0.81929-0.15102-1.2297-0.0507-0.41042-0.10172-0.82138-0.15305-1.233-0.0513-0.41157-0.10298-0.82375-0.15494-1.2366-0.0519-0.41285-0.10421-0.82637-0.15682-1.2406-0.0526-0.41424-0.10557-0.8292-0.15895-1.2449-0.0534-0.41572-0.1072-0.83221-0.16157-1.2495-0.0544-0.41726-0.1093-0.8353-0.16499-1.2541-0.0557-0.41882-0.11213-0.8384-0.16959-1.2587-0.0575-0.42031-0.11595-0.84136-0.1758-1.263-0.0599-0.42168-0.12108-0.844-0.18412-1.2668-0.0631-0.42282-0.12791-0.84614-0.19514-1.2698-0.0672-0.42361-0.13684-0.84751-0.20948-1.2714-0.0726-0.4239-0.14833-0.84779-0.22785-1.2713-0.0795-0.42352-0.1629-0.84665-0.25103-1.2689-0.0881-0.42226-0.18105-0.84365-0.27978-1.2636-0.0987-0.41991-0.20334-0.83833-0.31496-1.2545-0.11161-0.41621-0.23029-0.83019-0.35731-1.2411-0.12701-0.4109-0.26241-0.81869-0.40756-1.2224-0.14515-0.4037-0.30012-0.80327-0.46631-1.1976-0.1662-0.39434-0.34369-0.78341-0.53392-1.166-0.19023-0.38258-0.39327-0.75863-0.61049-1.1268-0.21721-0.36822-0.4487-0.72855-0.69569-1.0797-0.24698-0.35113-0.50957-0.69299-0.78873-1.0243-0.27917-0.33132-0.57502-0.65202-0.88819-0.96095-0.31316-0.30892-0.64375-0.60599-0.9919-0.89028-0.34814-0.28429-0.71395-0.55572-1.0969-0.81373-0.38297-0.25801-0.7832-0.50251-1.1994-0.73346-0.41621-0.23095-0.84851-0.44825-1.2947-0.65254-0.44618-0.20429-0.90633-0.39548-1.3772-0.57502-0.4709-0.17954-0.95264-0.34735-1.4409-0.50586-0.48828-0.15852-0.98315-0.30766-1.4793-0.45093-0.49612-0.14327-0.99351-0.28062-1.4859-0.41664-0.49239-0.13601-0.97974-0.27069-1.4551-0.40963-0.47534-0.13895-0.93859-0.2822-1.3824-0.43619-0.44387-0.15399-0.8682-0.31882-1.2659-0.50139-0.39771-0.18257-0.76858-0.38302-1.1064-0.60822-0.3378-0.2252-0.64228-0.47533-0.90879-0.75651-0.26652-0.28117-0.4948-0.59362-0.68264-0.94183-0.18784-0.3482-0.33495-0.73244-0.44236-1.1546-0.1074-0.42219-0.17483-0.8826-0.20716-1.3796-0.0323-0.49705-0.0293-1.031-0.00014-1.596 0.0292-0.56498 0.0848-1.1612 0.15349-1.778 0.0687-0.61684 0.15058-1.2544 0.22893-1.8975 0.0784-0.64309 0.15306-1.2916 0.20531-1.9267 0.0523-0.63502 0.0818-1.2563 0.0696-1.8427-0.0121-0.58645-0.0664-1.1377-0.17915-1.6331-0.11279-0.49542-0.28468-0.93448-0.52684-1.3005-0.24216-0.36598-0.55516-0.6582-0.94209-0.86748-0.38694-0.20928-0.84835-0.33493-1.3772-0.37875-0.52883-0.0438-1.1255-0.005-1.7719 0.10061-0.64647 0.10584-1.3429 0.27925-2.0615 0.49129-0.71859 0.21203-1.4592 0.46265-2.1873 0.71146-0.72814 0.24881-1.4434 0.49531-2.11 0.69326-0.66667 0.19794-1.284 0.34639-1.8222 0.40172-0.5382 0.0553-0.99633 0.0163-1.3576-0.14771-0.36124-0.16399-0.62473-0.45428-0.79258-0.87829-0.16786-0.42401-0.23951-0.98282-0.23863-1.6538 0.00088-0.67093 0.0744-1.4544 0.17752-2.2968 0.10317-0.8424 0.23547-1.7432 0.34264-2.6256 0.10716-0.88238 0.18807-1.7448 0.18983-2.5037 0.002-0.75891-0.0771-1.412-0.27313-1.8921-0.19603-0.48011-0.51063-0.78475-0.951-0.88701s-1.0073-0.00029-1.6724 0.27566c-0.66505 0.27594-1.4281 0.72628-2.2289 1.2622-0.80085 0.53592-1.6384 1.1559-2.4366 1.7318-0.79821 0.57597-1.5551 1.1046-2.2033 1.4575-0.64819 0.3529-1.1855 0.52582-1.5786 0.43871-0.39307-0.0871-0.64047-0.43776-0.7597-1.0429-0.11922-0.60513-0.11034-1.4657-0.0408-2.4706 0.0695-1.0049 0.19778-2.1515 0.28942-3.2556 0.0917-1.104 0.14364-2.1596 0.0705-2.9786-0.0732-0.81895-0.27445-1.3943-0.64007-1.6209-0.36561-0.2266-0.897-0.0998-1.559 0.33676-0.66206 0.43655-1.4536 1.1821-2.2783 2.0405-0.82463 0.85837-1.6788 1.8225-2.4472 2.6204-0.76846 0.7979-1.4469 1.4188-1.9602 1.6507-0.51332 0.23191-0.85876 0.0659-1.0456-0.5196-0.18684-0.58556-0.21588-1.5916-0.1826-2.8056 0.0333-1.214 0.12446-2.6264 0.14119-3.8825 0.0167-1.2561-0.0467-2.3398-0.2815-2.957-0.23482-0.61723-0.64439-0.75499-1.2182-0.38321-0.57383 0.37177-1.3103 1.2527-2.0972 2.3476-0.787 1.0948-1.6184 2.3869-2.3506 3.4153-0.73222 1.0284-1.3586 1.7693-1.8033 1.9098-0.44472 0.14054-0.70565-0.33279-0.83339-1.3247-0.12774-0.99189-0.12699-2.492-0.1421-4.0124-0.0151-1.5203-0.0546-3.0302-0.24744-3.9904-0.19286-0.96022-0.54464-1.3423-1.0645-1.004-0.51986 0.33831-1.2052 1.3969-1.9346 2.7412-0.72937 1.3443-1.4936 2.9396-2.1428 4.0873-0.64923 1.1477-1.1757 1.8047-1.5338 1.6246-0.35811-0.18012-0.54908-1.2073-0.67367-2.6947-0.12458-1.4874-0.19243-3.3945-0.35432-4.8896-0.1619-1.4952-0.42661-2.5199-0.84721-2.5952-0.4206-0.0752-0.99572 0.81479-1.6301 2.2434-0.6344 1.4286-1.3176 3.3421-1.9104 4.7606-0.59281 1.4186-1.0871 2.268-1.45 2.0522-0.36292-0.21575-0.59808-1.5063-0.80764-3.2476-0.20956-1.7412-0.40455-3.8536-0.69535-5.2059-0.29081-1.3523-0.68227-1.8598-1.1641-1.2209-0.48184 0.63891-1.0468 2.4042-1.5918 4.2874-0.54507 1.8832-1.061 3.7666-1.4938 4.5007-0.43278 0.73409-0.78398 0.24839-1.1082-1.216-0.3242-1.4644-0.63062-3.8216-0.98496-5.6187s-0.75867-2.8891-1.1932-2.547c-0.43456 0.34214-0.8914 2.1153-1.3202 4.1794-0.42882 2.0641-0.82639 4.2466-1.2119 5.0539-0.38552 0.80725-0.76731 0.14107-1.1891-1.5764-0.42178-1.7175-0.88737-4.3377-1.3545-5.995-0.46712-1.6573-0.92441-2.1622-1.3059-1.0951-0.38146 1.0671-0.68095 3.6196-0.96617 5.787s-0.57267 3.6931-0.97998 3.395c-0.40731-0.29809-0.94597-2.4132-1.5343-4.6988-0.58834-2.2856-1.2034-4.4417-1.6548-4.6879-0.45139-0.24622-0.71902 1.4918-0.88567 3.8601-0.16664 2.3684-0.26283 5.0375-0.56495 5.7892-0.30211 0.75167-0.84128-0.55895-1.5362-2.8067-0.69494-2.2477-1.5051-5.0724-2.0585-5.9373-0.5534-0.86496-0.80668 0.42624-0.8552 2.813-0.0485 2.3867 0.0521 5.463-0.17301 6.4623-0.22514 0.99926-0.83017-0.29775-1.6644-2.6553-0.83424-2.3576-1.8186-5.2986-2.3761-5.9321-0.55757-0.63346-0.63027 1.2371-0.49548 3.9084s0.36304 5.5692 0.0358 5.8802c-0.32726 0.31102-1.2557-2.0667-2.2831-4.6683s-1.9952-4.7504-2.2741-4.1004c-0.27896 0.64991 0.13306 4.0036 0.41325 6.6617 0.28019 2.658 0.22927 3.8919-0.5692 2.4541s-2.2578-5.1415-3.2182-6.9541c-0.96033-1.8127-1.2185-1.1031-0.86695 1.5072 0.35158 2.6103 1.0951 6.3445 0.92686 7.0983-0.16821 0.7538-1.3661-1.7434-2.7039-4.5019s-2.4742-4.7464-2.4795-3.4506c-0.005 1.2958 1.025 5.4961 1.4175 7.7624 0.39245 2.2662-0.19272 1.7212-1.5697-0.84143s-3.1607-6.0572-3.589-5.9804c-0.42827 0.0768 0.57837 3.8188 1.3201 6.744 0.74175 2.9252 0.68973 3.7555-0.63301 1.5958s-3.5112-6.2568-4.1993-6.7769c-0.68807-0.52006 0.34587 2.939 1.2996 6.0692 0.9537 3.1301 1.1215 4.3762-0.28058 2.2693-1.402-2.1069-3.866-6.3792-4.533-6.7879-0.66699-0.40873 0.70924 3.4444 1.7772 6.5247s0.94814 3.6424-0.77039 1.1274c-1.7185-2.5149-4.2427-6.4738-4.4755-5.997-0.23279 0.47674 1.8319 5.2729 2.7409 7.7883 0.90902 2.5154-0.25531 1.1348-2.3874-1.8722s-3.9939-5.3933-3.2982-3.3233c0.69567 2.07 3.2617 7.2834 3.3201 8.1454 0.0584 0.86198-2.8059-3.1987-4.8248-5.7253s-1.802-1.2977-0.1396 2.1471 3.1241 6.4356 1.5122 4.6439-5.2926-6.6823-5.7611-6.617c-0.46847 0.0653 2.5116 5.299 3.6797 7.7238 1.1681 2.4249-0.97819-0.0684-3.585-3.0981s-3.4358-3.4047-1.5976-0.11611 4.202 7.1774 2.5802 5.6247c-1.6218-1.5528-5.9845-6.7159-6.3181-6.4488-0.33361 0.26717 3.5128 6.0052 4.5089 7.9308 0.99607 1.9256-2.48-1.9195-5.0885-4.5369-2.6085-2.6175-1.5748-0.59349 0.84287 3.0197s2.8676 4.7083-0.0662 1.818c-2.9337-2.8903-5.985-5.7919-4.2434-3.1112s5.695 7.8076 4.2072 6.7024-6.9592-6.6206-7.0739-6.1098c-0.11469 0.51082 5.0327 6.7628 5.5231 7.8638 0.49038 1.101-4.9979-4.2013-6.9428-5.6364s2.3009 3.6301 4.3521 6.3036-1.8855-0.81448-5.0319-3.3795-0.7799 0.43002 2.1481 3.8535 0.97621 2.0208-2.7431-0.95927c-3.7193-2.98-3.2226-1.8682 0.0748 1.7527s2.9969 3.812-0.93442 0.795-4.751-3.1202-1.3003 0.47681c3.4508 3.597 4.1065 4.6259 0.0563 1.6681s-5.3955-3.4854-1.7934 0.0766c3.6022 3.562 4.3466 4.6255 0.12852 1.6938-4.218-2.9317-5.1422-3.073-1.3336 0.48895 3.8086 3.5619 3.6063 3.838-0.78866 0.93629s-3.7697-1.8272 0.15157 1.6503 1.5733 2.1506-2.7391-0.51843c-4.3124-2.6691-0.93583 0.36747 2.613 3.4069 3.5488 3.0395-2.0114-0.47008-5.4837-2.3866-3.4722-1.9166 3.3633 3.3486 5.4998 5.2756 2.1366 1.927-6.6715-3.5338-8.0367-3.9271-1.3652-0.39336 7.9239 6.1746 7.3098 6.2385-0.61404 0.0639-10.279-5.582-8.4059-3.9047 1.8732 1.6772 9.6682 6.9308 5.7775 5.0182-3.8908-1.9125-9.1078-4.5071-4.5299-1.3133 4.578 3.1938 4.9945 3.8312-0.20593 1.3098-5.2004-2.5215-0.96529 0.41988 2.843 3.0014s-5.2854-2.0092-7.2777-2.6061c-1.9923-0.59687 8.9854 5.7396 7.6095 5.4523-1.3759-0.28724-11.459-5.0207-7.6308-2.5934 3.8282 2.4274 8.395 5.1107 2.73 2.7587s-2.9663-0.51308 1.5138 2.0732-5.5318-1.7287-7.2013-2.0331c-1.6695-0.30444 10.499 5.6879 7.6425 4.832-2.857-0.85584-11.118-4.0002-5.6833-1.1932 5.4344 2.807 3.8285 2.4937-1.4578 0.73189s5.291 3.0707 6.224 3.865c0.93309 0.79433-12.135-3.9346-8.2678-1.9751 3.8671 1.9595 8.8928 4.252 2.5756 2.3187s0.96402 1.2371 3.9316 2.7216-11.28-3.1242-8.4063-1.6783c2.8741 1.4459 10.344 4.3552 3.7693 2.5966-6.5749-1.7587 0.39436 0.99638 3.5081 2.3971 3.1138 1.4008-11.829-2.8285-8.1904-1.2764 3.6388 1.5522 9.2456 3.5875 2.5541 2.0671-6.6916-1.5204 4.0649 2.0057 5.1698 2.7138 1.1048 0.70811-13.086-2.6859-7.21-0.70331 5.8761 1.9826 3.875 1.8263-1.2608 0.97316-5.1358-0.8531 10.57 3.4057 7.0866 2.9791-3.4831-0.42654-9.803-1.4108-3.0618 0.51029 6.7411 1.9211-6.9768-0.67745-6.3131-0.10106 0.66361 0.57638 11.983 3.261 4.6327 2.2219-7.3508-1.0392 3.3914 1.472 4.3322 2.039 0.9408 0.56697-13.094-1.4873-5.8753 0.16863 7.2183 1.6559-2.2046 0.46607-3.9316 0.62402s12.947 2.7747 5.4558 2.0892c-7.4911-0.68546 2.5315 1.1654 3.6165 1.6998 1.0851 0.53446-12.831-0.78458-5.1431 0.55038 7.6881 1.335-5.3264 0.22876-4.702 0.72544 0.62438 0.49668 11.074 1.922 3.4095 1.61-7.6644-0.31199 9.1621 1.6022 5.436 1.6867s-7.0044 0.28939-1.0949 1.0934c5.9096 0.80403-12.766 0.0392-5.7848 0.85304 6.9812 0.81386-0.82809 0.78873-2.3844 1.1474-1.5563 0.35863 11.888 1.2446 3.7687 1.3999-8.1194 0.15526 9.6863 1.0253 4.8576 1.3244-4.8287 0.29911-3.6108 0.75926 0.3264 1.173 3.9372 0.41372-12.65 0.83972-4.1824 1.193 8.4675 0.35324-8.7646 0.96092-4.1673 1.2982 4.5974 0.33729 3.093 0.74948-0.33533 1.2831-3.4284 0.53366 11.847 0.34369 3.4141 1.1273-8.4328 0.78356 10.944 0.22056 4.1461 1.001-6.7983 0.78039 2.2666 0.6408 1.8987 1.0538-0.36785 0.41298-7.4009 1.377-1.2428 1.2655 6.1581-0.11159-12.123 1.922-3.1843 1.4833 8.9389-0.43873-10.108 1.8889-3.1163 1.5598 6.992-0.32903-3.4316 1.2507-1.5337 1.4524 1.8978 0.20176 4.2239 0.30074 0.48951 1.2264-3.7344 0.92571 9.7751-0.55765 2.0348 0.99288s11.809-1.0179 2.6887 0.84141c-9.1202 1.8593 10.512-0.96862 2.5126 0.80716-7.9995 1.7758 7.0021-0.47832 1.8243 0.87432s2.6063 0.28343 0.97783 0.99969c-1.6284 0.71626-1.6118 1.1305 0.23243 1.1371 1.8442 0.007-5.0306 1.9173-0.28385 1.253 4.7467-0.66435-7.438 2.5609-0.55034 1.3304 6.8876-1.2304-8.9023 3.0363-0.60877 1.3669s-9.633 3.3596-0.52299 1.3683-9.8746 3.5677-0.35277 1.3434-9.8414 3.7023-0.14201 1.3004-9.6883 3.799 0.0832 1.2449c9.7714-2.5541-9.501 3.8799 0.31079 1.1799s-9.2981 3.9497 0.537 1.1063c9.8352-2.8434-9.0348 3.9922 0.75969 1.0248 9.7944-2.9673-8.6093 3.968 0.97168 0.93811 9.581-3.0298-7.8745 3.8148 1.1545 0.8535s-6.6603 3.4531 1.2735 0.78605c7.9338-2.6671-4.8179 2.8018 1.2766 0.76031 6.0945-2.0414-2.2889 1.8088 1.1016 0.80906 3.3905-0.99975 0.80237 0.49821 0.69595 0.96568-0.10642 0.46748 4.0616-0.9774 0.0526 1.2474s6.795-2.3024-0.7435 1.6296 8.114-3.0255-1.4788 2.02c-9.5928 5.0456 7.2379-2.6944-1.822 2.2519s3.9703-1.1076-1.4272 2.1247-0.83723 1.3948-0.14324 1.5121-5.2074 3.8052 1.7379 0.51468c6.9454-3.2905-6.7296 4.7455 3.3801-0.44075s-4.0421 3.2878 3.6847-0.70817 1.655-0.0581 2.0316 0.16801c0.37661 0.22608 6.508-3.0728-0.89051 1.9015-7.3986 4.9742 6.4109-3.1134-3.002 3.2782s0.88669 0.39114-2.1936 2.8852c-3.0803 2.494-5.1621 4.4495 1.4253 0.58857s-5.2397 4.6163 4.6353-1.6249c9.875-6.2411 1.349 0.0571 3.7055-1.12 2.3565-1.177 6.9186-4.0306-0.95913 2.1193s3.8139-1.8615-3.8255 4.2982-4.2052 4.2294-0.55771 1.9998-5.0873 5.0632 4.8412-2.1467 3.2374-1.5268 4.0583-1.6874c0.82093-0.16066 6.9355-4.7023-2.3196 3.3988-9.2551 8.101-1.1966 2.028-3.496 4.5172s-6.1471 6.4429 3.3051-1.1598 2.5053-1.0792 5.3667-3.0922 7.0774-5.3936-1.9787 3.3628c-9.0561 8.7565-2.9942 3.8521-3.4191 4.8307-0.42499 0.97863-4.9022 5.8874 4.7483-2.7583s6.5276-5.2292 3.748-1.9679c-2.7797 3.2613 2.9209-1.8756-4.3941 6.0553s-6.9212 8.3211 0.89178 0.88443c7.8129-7.4366 3.6531-2.591 6.0854-4.5944s5.604-4.9579-3.0304 4.9896c-8.6344 9.9474-7.0189 8.9995-0.90493 2.8462 6.1139-6.1533 3.2181-2.3301 6.4253-5.3931s5.3254-5.0636-2.9554 5.2379c-8.2808 10.301-7.4415 10.189-0.0938 2.0423 7.3478-8.1462 6.0392-6.0415 5.869-5.2199-0.17024 0.82161 1.3363-0.49716-4.2981 7.2859-5.6344 7.783-5.5666 8.6087 3.3303-2.2407s9.003-10.591 2.5506-1.3645c-6.4524 9.2266-6.1265 9.6354-3.5324 6.8191s3.4514-3.2988 6.4206-6.7896 2.4379-2.2055-3.4776 7.0386c-5.9156 9.244-4.8507 8.6981 3.4086-2.788s8.4656-11.392 0.96793 0.72493c-7.4976 12.117-7.8986 13.793-0.97431 3.7601 6.9242-10.033 8.9419-12.719 4.4958-4.8441-4.4461 7.8752-6.6027 12.343-3.294 7.7018 3.3087-4.641 6.8189-9.8304 5.7789-7.301-1.0399 2.5294-4.3392 9.0667-3.7646 8.9224 0.57463-0.14432 4.951-7.074 5.8154-7.8345 0.86436-0.76047-3.1104 7.3171-3.5616 9.0549-0.45125 1.7378 4.5344-6.7441 5.5979-7.9441s-3.4942 8.516-3.3394 9.1557c0.15473 0.63973 5.6971-9.572 5.4084-8.1068-0.28876 1.4652-5.2333 12.714-3.0269 9.0668 2.2064-3.647 7.7362-14.683 4.8636-7.5095-2.8726 7.1736-7.0259 17.626-1.9952 7.3559s8.599-17.813 3.2139-4.2788-6.0888 16.727 0.3974 2.1641 5.1962-10.813 0.28025 2.5818c-4.9159 13.395-0.0593 2.5392 3.4398-5.445 3.499-7.9842-2.496 8.8487-2.0195 8.7928 0.47654-0.056 7.0993-17.224 4.1222-7.7291-2.9772 9.4948-6.0542 19.99-0.46345 4.9632 5.5907-15.027 4.7128-11.71 0.69459 1.8346-4.0182 13.544 1.9691-3.3684 3.3787-6.553 1.4095-3.1845-4.7355 18.268-1.3558 8.5205 3.3797-9.7472 6.4675-19.364 2.2199-3.128-4.2477 16.236-0.37951 4.5355 2.3194-3.8358s-3.4691 16.257-0.98501 8.411c2.4841-7.8464 5.8863-20.199 2.1889-3.5461s0.55937 1.2788 2.2857-4.3984-3.786 20.604-0.50976 7.7075c3.2762-12.897 3.797-14.158 1.2949-0.0424s3.4708-13.307 2.614-6.8679c-0.85676 6.4396-2.9157 20.342 0.53714 3.561 3.4529-16.781-0.56991 8.0798 0.20954 6.0231 0.77944-2.0567 4.2506-21.658 1.9365-4.1163-2.314 17.542 1.8395-6.9531 1.954-5.0175s-2.0177 21.427 0.65062 3.9993c2.6683-17.427-0.5521 11.453 0.55919 5.6219 1.1113-5.8313 2.6826-17.429 1.4835-1.9036-1.1991 15.526 2.5893-18.856 1.7794-5.7018-0.80987 13.155 0.2628 6.718 1.2587-0.96878 0.99587-7.6868-0.76589 23.032 0.85832 4.6727s0.17632 11.616 0.99361 4.3151c0.81729-7.301 1.3373-11.799 1.2982-0.5049s1.5122-22.858 1.3877-4.1588 1.0444-13.816 1.2752-3.7221c0.23078 10.094 0.76554 5.1406 1.1709-0.54234 0.4054-5.683 0.9488 19.533 1.1855 2.4541 0.23668-17.079 1.2628 21.874 1.2704 3.4882 0.008-18.385 1.284 13.562 1.3282 2.5992 0.0442-10.962 0.87282 0.60364 1.3109 0.82437 0.43811 0.22073 0.18775-11.212 1.2354-0.80935 1.0477 10.403-0.50172-18.744 1.1466-1.7786 1.6483 16.966-0.98937-21.536 1.0808-2.0498 2.0701 19.486-1.2006-20.732 1.0513-1.8468 2.2519 18.886-1.173-17.957 1.0528-1.4352s-1.0023-14.62 1.0721-1.0092-0.79627-11.677 1.0968-0.66609c1.893 11.01-0.64906-9.6548 1.1193-0.42723s-0.63397-8.7837 1.1385-0.26825c1.7724 8.5155-0.80419-9.1084 1.1583-0.14309 1.9624 8.9654-1.1911-10.546 1.1868 0.001 2.378 10.547-1.7922-12.865 1.2351 0.21287s-2.5445-15.611 1.3134 0.52413c3.8578 16.135-3.287-18.002 1.4254 0.92742s-3.7314-18.9 1.5577 1.3461c5.2891 20.247-3.4807-16.98 1.6678 1.6084 5.1484 18.589-2.1534-11.238 1.6786 1.4569s0.34858-1.87 1.4979 0.64224 3.4914 8.8224 1.0783-0.87352c-2.4131-9.696 5.9333 16.328 0.51271-2.6624-5.4206-18.991 5.939 15.684 0.0999-3.7473s2.6293 5.2769 0.25231-3.0144c-2.377-8.2912-2.4968-9.4774 1.1551-0.22465 3.6519 9.2527-5.4552-17.2 2.3379 3.0091s-2.7215-9.4162 2.696 3.6968 4.096 8.1177 1.4584 0.24528 7.5504 16.214-0.45722-4.5032 2.2222 3.1161-0.67581-4.7396-5.7466-15.057 1.6856 0.9494c7.4323 16.006-3.959-10.6 3.5889 5.0607s6.1697 11.217 1.5732 0.38979 6.8707 12.208-1.6115-6.2595c-8.4822-18.467-4.7564-11.336 0.12956-2.412 4.886 8.9237-5.3583-12.048 4.1384 5.4924 9.4966 17.54 7.9519 13.217 1.7612 0.64929-6.1907-12.567 4.5265 6.4477-2.4817-7.1813s-8.8469-17.283 1.8021 0.80589 2.7958 3.2901 4.5019 5.3798 9.1095 13.539-2.1041-6.023-8.9992-16.197-0.0234-2.3354c8.9757 13.862 1.8386 1.5047 5.3534 6.2695 3.5149 4.7648 9.3627 12.798-2.4509-6.1226s-11.255-18.302 0.67784-1.1427c11.933 17.16 7.9237 10.2 4.974 5.1457s2.2138 1.5956-4.1179-8.0655c-6.3318-9.6611-8.8649-13.533 4.5961 4.3611s14.372 17.944 0.38277-1.5724-12.991-18.415-1.4865-3.9802c11.505 14.435 11.138 13.003 5.6422 5.2919-5.4961-7.7111-5.265-7.975-4.83-8.0508 0.43497-0.0757 1.8538 1.096 6.9305 6.5847 5.0768 5.4887 3.3837 2.6238-4.7008-7.5393s-5.0761-6.9898 6.034 5.1729 8.1345 7.8269-3.7411-6.1104-7.6245-9.4784 5.3623 4.1279 8.3565 7.6558-3.6804-5.7788-5.3283-6.6402 5.9082 4.4554c11.237 11.096 3.0574 1.8513-4.8308-6.7163s3.3113 2.2397 7.2889 5.5793c3.9776 3.3395-8.8398-9.7815-5.974-7.5509s16.979 14.981 7.2768 5.2603c-9.7019-9.7212-20.874-20.36-3.9319-5.3385 16.942 15.021 21.795 18.465 2.4504 0.59668-19.345-17.869-12.685-12.135 3.2406 1.2122s-1.4862-2.4097-5.1168-6.0078c-3.6306-3.598 18.677 14.538 7.4936 4.7088-11.184-9.8288-23.692-20.271-2.731-3.8427 20.961 16.429 12.722 8.9783-1.5985-2.8048s12.285 8.4869 7.2516 4.0848c-5.0333-4.4021-25.262-19.99-3.867-4.4901s11.633 7.4649-1.5237-2.6028 19.18 12.689 7.132 3.6226-23.058-16.967-1.299-2.4421-7.8485-6.304-4.5806-4.5733 27.566 17.129 4.53 1.5765 4.3667 1.8401 4.8779 1.659c0.51125-0.18108-27.337-17.94-3.2833-3.5383 24.053 14.402-7.3677-5.4066-3.625-3.607 3.7427 1.7995 26.103 14.373 3.2894 0.57833s19.471 10.159 5.4731 1.7271c-13.998-8.4324-13.869-8.6094 0.66757-1.0824 14.536 7.5269-28.701-16.333-3.6698-3.4037s-10.873-6.5662-2.756-2.7924c8.1174 3.7738 17.213 7.7912 1.2301-0.68292s29.912 13.72 3.9886 0.63862 20.882 8.9655 3.7671 0.42652c-17.115-8.5389 0.29468-0.78787 1.6366-0.64509 1.3419 0.14279-18.567-9.1316-0.55978-1.6477s-28.282-12.985-1.7464-2.1213-28.363-12.573-1.8456-2.0958c26.518 10.477-22.151-9.662-1.3022-1.8122s-13.573-6.0367-0.59791-1.4924-5.4551-2.838-0.0289-1.2537 0.76222-0.55161 0.30489-1.1234c-0.45733-0.57176 4.6133 0.75057 0.42533-1.0802-4.188-1.8307 6.0845 1.1681 0.4051-1.0882s5.2419 0.8236 0.32896-1.1132 2.0823-0.18693 0.2834-1.1263c-1.7989-0.93941-3.388-1.7669 0.35795-1.1038 3.746 0.66309-10.851-3.738 0.63976-1.0286s-19.198-5.7373 1.1815-0.89831c20.379 4.839-26.058-7.1558 1.9301-0.73959s-27.828-7.2265 2.6319-0.62167-20.902-5.3706 2.7923-0.64929c23.695 4.7214-4.5348-1.7768 1.8398-0.9104 6.3747 0.86637 15.75 2.1391-0.38072-1.3764s27.768 4.0712-2.9596-1.8196c-30.727-5.8909 19.758 2.414-3.8527-1.8846-23.61-4.2986-6.069-1.7262-1.3424-1.3977 4.7267 0.32851-26.786-4.5019 3.3252-0.70799 30.112 3.7939-16.874-2.9212 5.2696-0.54298s15.826 0.95538 0.86242-1.1753c-14.963-2.1307 26.271 1.7789-5.284-1.8149s-5.849-1.3392-3.5252-1.522c2.3239-0.18271-27.958-2.8717 4.9006-0.79212s4.4865-0.51196 4.9336-0.91184c0.44706-0.39987 27.892 0.52895-5.1563-1.5432-33.048-2.0721-12.048-1.2846-4.2557-1.3774 7.7925-0.0928-22.571-1.314 7.0377-0.98449s25.487-0.50775 1.0018-1.237c-24.485-0.7293 3.3274-0.87414-7.8618-1.2619"/>
 </g>
</svg>
